<svg xmlns="http://www.w3.org/2000/svg" viewBox="0 0 500 538"><path fill="#fbfbfb" stroke="#fbfbfb" d="M344.788 114.75c-.837.963-2.145 2.96-2.905 4.438-1.175 2.283-8.089 14.27-11.383 19.733-4.854 8.051-7.962 12.079-9.321 12.079-1.636 0-25.515-11.892-34.409-17.135-9.361-5.52-9.214-3.775 1.228 14.635C294.072 159.21 300 171.006 300 172.385c0 1.959-3.329 5.068-7.593 7.092-1.827.867-3.585 2.002-3.907 2.523-.322.521-2.141 1.685-4.042 2.587-1.902.903-3.458 2.04-3.458 2.527 0 .487-.675.886-1.5.886s-1.5.395-1.5.879c0 .483-1.35 1.438-3 2.121s-3 1.526-3 1.873-2.025 1.705-4.5 3.018c-6.665 3.535-5.58 5.109 3.523 5.109 8.169 0 7.743.677-10.068 16a1616.414 1616.414 0 0 0-14.924 13.063c-4.692 4.16-9.828 8.66-11.414 10a240.048 240.048 0 0 0-4 3.442c-5.145 4.632-20.931 18.582-23.68 20.927-3.156 2.693-16.92 14.726-19.522 17.068-.612.55-3.734 3.25-6.939 6s-6.31 5.452-6.901 6.005c-.591.553-5.575 4.797-11.075 9.432-5.5 4.635-11.35 9.673-13 11.195-1.65 1.523-5.33 4.703-8.178 7.068-8.841 7.342-21.862 19.192-23.681 21.55-1.892 2.454-1.572 3.022.538.955.726-.712 4.981-3.822 9.455-6.91 8.776-6.059 10.542-7.412 16.784-12.853 2.245-1.957 5.432-4.573 7.082-5.814 1.65-1.24 4.51-3.463 6.356-4.941 3.216-2.575 10.548-8.357 12.644-9.971 7.542-5.808 10.081-7.801 10.5-8.242.275-.289 2.3-1.894 4.5-3.567 2.2-1.673 14.082-10.886 26.404-20.474 12.322-9.588 25.597-19.875 29.5-22.86 3.903-2.985 11.146-8.646 16.096-12.581 4.95-3.935 11.475-8.994 14.5-11.241 3.025-2.247 10.45-7.966 16.5-12.708 11.365-8.907 13.328-9.927 18.035-9.371 2.098.248 2.856.94 3.1 2.828.178 1.375.538 3.696.8 5.157.614 3.415-.792 4.803-18.153 17.918-7.58 5.726-14.682 11.169-15.782 12.096-1.1.927-4.578 3.63-7.73 6.007-19.336 14.585-55.057 41.806-59.382 45.25-2.811 2.24-10.18 7.897-16.376 12.572-6.195 4.675-11.851 9.063-12.567 9.75-.716.688-1.563 1.25-1.883 1.25-.319 0-1.993 1.35-3.719 3-1.727 1.65-3.523 3-3.991 3-.469 0-.852.472-.852 1.048 0 1.945 4.585-1.008 69.796-44.956C257.009 265.491 271.484 256 271.963 256c.479 0 1.02-.365 1.204-.81.452-1.1 35.637-24.19 36.861-24.19.994 0 1.166 1.06 1.475 9.112.412 10.731 2.263 10.4 9.013-1.612.618-1.1 2.433-4.025 4.033-6.5 1.601-2.475 3.369-5.266 3.931-6.203 6.546-10.923 9.728-15.797 10.315-15.798.388 0 9.822 4.57 20.965 10.157 11.143 5.586 20.561 9.856 20.929 9.488.748-.748-.21-2.765-8.14-17.144-14.154-25.663-13.917-24.726-7.122-28.205 1.69-.866 3.298-1.896 3.573-2.29.275-.394 4.325-3.104 9-6.024 12.225-7.634 20-13.042 20-13.912 0-.415-8.663-1.102-19.25-1.527-22.861-.917-26.719-1.178-27.393-1.852-.28-.279-.856-10.156-1.281-21.949-.875-24.31-1.394-26.468-5.288-21.991M216.5 137.094c-20.233 3.52-29.58 6.622-46.211 15.332-22.651 11.863-45.77 38.279-55.202 63.074-1.255 3.3-2.637 6.9-3.071 8-.433 1.1-1.261 3.8-1.839 6l-2.364 9c-1.663 6.333-1.853 43.86-.23 45.483 1.553 1.553 3.287.457 8.729-5.515l4.812-5.28.274-13.344c1.063-51.797 36.395-94.475 88.602-107.022 7.45-1.791 37.642-1.776 45 .022 12.497 3.053 26.603 8.884 34.68 14.335 6.685 4.511 8.107 3.445 4.082-3.061-1.231-1.99-3.638-6.318-5.35-9.618-3.701-7.139-6.852-9.193-19.887-12.967-17.09-4.948-38.568-6.781-52.025-4.439m8.746 19.156c-.549.688-2.929 5.207-5.287 10.043-2.359 4.836-4.624 9-5.034 9.253-.842.521-9.586-2.99-19.161-7.693-7.103-3.489-5.621 1.293 5.38 17.357 2.758 4.026 2.635 4.216-7.644 11.841-9.921 7.359-11.164 8.949-7 8.949 1.391 0 2.5.58 2.5 1.306 0 1.12-43.812 45.686-68.893 70.079-8.965 8.719-11.102 13.144-3.357 6.951 2.612-2.089 6.614-5.607 8.893-7.817 2.278-2.211 5.653-5.344 7.5-6.964 7.086-6.217 23.784-21.291 33.555-30.292 5.609-5.166 11.456-10.377 12.993-11.578 1.538-1.202 7.689-6.572 13.671-11.935 11.752-10.536 15.042-11.971 16.266-7.095.669 2.665-3.102 7.029-14.146 16.367-2.905 2.456-16.951 14.718-38.922 33.978-16.152 14.159-19.157 17-17.979 17 .589 0 3.736-2.043 6.995-4.54 3.258-2.496 9.974-7.628 14.924-11.402 4.95-3.775 12.825-9.835 17.5-13.468a3035.31 3035.31 0 0 1 20.454-15.691l11.953-9.087 1.056 3.764c1.267 4.515 2.788 5.289 4.323 2.2 2.411-4.851 9.381-17.314 10.084-18.032.71-.724 9.553 1.759 11.63 3.265.55.399 3.588 1.679 6.75 2.844 6.863 2.529 7.199 1.777 2.4-5.366-1.842-2.743-4.558-7.237-6.036-9.987l-2.685-5 3.785-3.358c2.082-1.847 6.261-5.01 9.286-7.028 8.633-5.759 7.732-6.614-6.98-6.614h-12.48l-1.287-10.5c-1.418-11.561-1.761-13-3.099-13-.5 0-1.359.563-1.908 1.25m111.995 59.736c-1.626 2.604-1.548 4.573.396 10.014 13.545 37.902 4.519 81.39-23.216 111.861-21.348 23.454-54.099 37.243-85.041 35.805-14.45-.671-25.255-2.598-34.38-6.131-18.14-7.024-28.685-13.92-42.312-27.668-6.65-6.71-11.269-10.637-12-10.202-4.075 2.426-8.688 6.944-8.688 8.511 0 6.3 29.063 30.787 45.25 38.124 8.501 3.854 10.54 4.652 16.75 6.562 19.299 5.934 40.662 7.915 55.201 5.119 19.029-3.659 23.996-5.18 37.385-11.446 17.674-8.272 34.123-21.612 46.307-37.554 3.359-4.395 6.107-8.168 6.107-8.384 0-.216 1.719-3.251 3.82-6.745 16.188-26.918 20.331-65.129 10.61-97.852-1.964-6.612-2.696-7.585-7.573-10.073-4.804-2.451-7.058-2.435-8.616.059M294.132 268.5c-3.47 4.125-6.506 7.5-6.749 7.5-.242 0-4.14-2.535-8.661-5.633-9.69-6.639-10.36-6.083-5.784 4.807 4.194 9.983 4.281 9.756-5.444 14.257-7.69 3.56-10.894 6.569-6.994 6.569 4.318 0 2.742 1.155-38.5 28.201-7.975 5.23-15.625 10.09-17 10.801-1.375.71-4.587 3.025-7.139 5.144-2.551 2.12-4.946 3.854-5.321 3.854-.376 0-1.358.675-2.183 1.5-.825.825-1.28 1.5-1.011 1.5.918 0 20.643-10.7 27.654-15.001 5.657-3.471 15.284-8.999 15.672-8.999.257 0 2.427-1.348 4.822-2.996s5.401-3.453 6.68-4.012c1.279-.559 5.627-3.036 9.661-5.504 4.034-2.468 7.709-4.488 8.167-4.488.457 0 .981-.341 1.165-.758.604-1.375 12.306-7.004 13.583-6.535 2.69.989.059 8.293-2.988 8.293-.319 0-6.879 3.6-14.579 8-7.699 4.4-14.342 8-14.762 8-.42 0-1.474.612-2.342 1.36-.869.748-4.279 2.846-7.579 4.662-12.244 6.738-13.474 7.504-13.931 8.677-.808 2.074 6.552-1.158 35.931-15.776C276.648 311.898 277 311.796 277 316c0 1.65.388 3 .863 3 1.059 0 9.146-8.558 11.541-12.213 1.967-3.002 1.298-3.221 12.101 3.963 2.688 1.788 5.248 3.25 5.691 3.25.965 0 1.085-5.386.14-6.33-.365-.365-1.485-2.997-2.489-5.849-2.297-6.521-1.516-7.597 8.309-11.452 7.217-2.831 8.959-5.609 3.834-6.115-1.37-.135-5.583-.78-9.364-1.433l-6.874-1.189.691-10.316c.38-5.674.309-10.316-.157-10.316-.466 0-3.685 3.375-7.154 7.5m-179.427 20.292c-4.649 4.72-4.765 4.982-3.876 8.787 1.935 8.283 13.407 33.352 15.286 33.404 1.166.032 10.885-8.338 10.885-9.374 0-.571-1.752-4.428-3.894-8.573-3.833-7.419-8.743-21.142-9.314-26.036-.497-4.259-3.762-3.615-9.087 1.792" fill-rule="evenodd"/><path fill="#e7a648" stroke="#e7a648" d="M345.2 116.2c-.66.66-1.2 1.626-1.2 2.146 0 .521-1.575 3.32-3.5 6.22s-3.5 5.559-3.5 5.908c0 .35-1.737 3.199-3.859 6.331-2.123 3.132-4.824 7.592-6.004 9.912-3.831 7.534-3.87 7.529-25.349-3.427-10.557-5.384-19.606-9.958-20.111-10.163-.842-.343 1.387 4.029 7.325 14.373 5.16 8.989 12.998 24.487 12.998 25.702 0 .715-7.762 6.457-17.25 12.761-9.488 6.303-17.648 11.786-18.135 12.184-.487.398 1.876 1.035 5.25 1.417 4.948.56 6.135 1.038 6.135 2.469 0 1.427-26.138 25.177-49.47 44.95-1.634 1.384-5.459 4.785-8.5 7.558-3.042 2.772-7.33 6.56-9.53 8.418-2.2 1.857-6.925 5.963-10.5 9.125s-11.45 9.939-17.5 15.061c-6.05 5.122-11.675 10.014-12.5 10.871-1.687 1.754-19.026 16.726-28.669 24.756-3.482 2.9-6.331 5.503-6.331 5.785 0 1.109 4.789-2.083 10.5-7 5.247-4.517 12.389-10.248 21.254-17.057 7.784-5.978 24.729-19.165 39.585-30.805 9.261-7.257 21.636-16.931 27.5-21.497l20.537-16A2290.023 2290.023 0 0 1 271.479 223a3175.73 3175.73 0 0 0 14.995-11.5c14.092-10.887 13.551-10.594 19.026-10.284l5 .284.892 4.615c1.3 6.723.291 8.867-6.535 13.885-3.368 2.475-6.625 4.976-7.24 5.558-.614.582-6.691 5.307-13.504 10.5A4477.538 4477.538 0 0 0 267.201 249c-2.488 1.925-6.924 5.3-9.856 7.5-2.933 2.2-12.332 9.4-20.887 16-8.556 6.6-17.316 13.169-19.468 14.598-2.151 1.429-5.66 4.129-7.798 6-2.137 1.871-6.907 5.587-10.6 8.258-3.692 2.671-6.497 5.073-6.231 5.338.451.452 1.649-.266 9.889-5.927 1.787-1.228 14.232-9.603 27.655-18.612 13.422-9.009 27.288-18.354 30.813-20.767 3.525-2.414 6.537-4.388 6.694-4.388.157 0 9.647-6.3 21.088-14s21.196-14 21.676-14c1.504 0 2.824 4.91 2.824 10.506 0 2.957.357 5.597.794 5.866.707.438 13.385-19.012 20.355-31.229 3.933-6.892 1.927-7.362 30.851 7.226 5.225 2.635 10.331 5.237 11.347 5.781 3.514 1.88 3.448 1.714-7.347-18.65-3.499-6.6-7.179-13.35-8.177-15-2.583-4.269-2.281-6.049 1.521-8.949 1.84-1.403 3.6-2.551 3.911-2.551.547 0 16.212-10.035 18.245-11.687.55-.447 2.163-1.412 3.584-2.143 1.422-.732 3.859-2.347 5.416-3.589l2.832-2.258-21.663-.691c-11.914-.381-22.299-.936-23.076-1.235-1.713-.657-2.304-6.007-3.167-28.647-.633-16.594-.899-17.877-3.226-15.55m-126.7 21.441c-54.88 6.133-99.974 48.42-110.022 103.174-1.755 9.563-1.874 41.122-.162 42.834.416.416 3.244-1.731 6.284-4.771l5.527-5.527.335-12.926c2.136-82.54 88.098-135.215 161.038-98.68 3.85 1.928 8.238 4.38 9.75 5.449 3.798 2.682 3.647.611-.5-6.848-1.788-3.215-3.887-7.081-4.666-8.589-4.681-9.074-42.332-16.938-67.584-14.116M221 167c-2.76 5.5-5.612 10-6.337 10-1.484 0-11.591-4.009-16.163-6.411-2.941-1.546-5.5-2.061-5.5-1.108 0 .551 6.26 10.686 9.098 14.729 3.201 4.56 2.476 6.179-5.348 11.93-8.695 6.392-10.35 8.208-7.933 8.707 4.358.899 2.496 3.195-24.84 30.641C148.358 251.17 136.03 264 136.581 264c.551 0 2.574-1.462 4.494-3.25a295.77 295.77 0 0 1 7.458-6.649c4.153-3.558 9.018-7.951 23.967-21.642 31.781-29.107 35.865-31.82 38.462-25.55 1.601 3.864.607 5.552-7.179 12.201-7.386 6.308-12.195 10.586-15.15 13.477-1.173 1.148-6.633 5.929-12.133 10.626-5.5 4.696-11.125 9.799-12.5 11.34l-2.5 2.802 3.5-2.375c1.925-1.306 7.775-5.745 13-9.865a88697.53 88697.53 0 0 1 16-12.616c16.839-13.274 17.624-13.631 18.65-8.499.886 4.431 1.502 3.888 7.083-6.25 6.001-10.899 7.006-11.218 18.542-5.883 9.443 4.367 11.294 3.669 6.485-2.444-2.232-2.839-4.706-6.835-6.962-11.251-1.658-3.243-.559-4.629 9.162-11.547 4.54-3.231 7.784-6.165 7.21-6.52-.575-.355-5.682-.334-11.349.046-13.542.91-12.705 1.866-14.366-16.401-.338-3.713-1.024-6.75-1.525-6.75-.502 0-3.17 4.5-5.93 10m116.249 50.353c-.847 1.86-.573 3.835 1.312 9.431 9.233 27.418 7.016 60.219-5.791 85.697-27.537 54.783-93.201 77.386-148.77 51.21-11.133-5.244-21.107-12.571-31.759-23.329-11.558-11.673-10.479-10.998-13.483-8.438a219.723 219.723 0 0 1-4.718 3.88l-2.461 1.955 2.573 3.374c17.349 22.746 47.906 40.542 77.848 45.337 76.695 12.284 145.864-46.551 145.982-124.171.01-6.71-.441-14.585-1.001-17.5-3.999-20.795-5.48-24.668-10.526-27.526-5.132-2.907-7.856-2.883-9.206.08m-178.742 41.636c-.35.566.051.734.941.393 1.732-.665 2.049-1.382.611-1.382-.518 0-1.216.445-1.552.989m135.529 11.466c-6.192 7.782-6.297 7.796-14.726 2.025-3.631-2.487-6.786-4.337-7.01-4.113-.224.224.741 3.236 2.146 6.693 4.213 10.368 4.072 10.705-6.446 15.448-8.075 3.642-7.833 3.447-5.742 4.617 3.144 1.759 1.981 2.739-22.508 18.956-32.585 21.578-27.727 19.789 14.069-5.183 16.345-9.765 20.351-11.68 22.97-10.979 5.935 1.587 3.361 7.071-5.437 11.581-3.219 1.65-6.077 3.225-6.353 3.5-.275.275-2.075 1.345-4 2.377a316.21 316.21 0 0 0-6.999 3.898c-7.414 4.278-11.625 6.633-14.918 8.34-1.881.975-2.941 1.932-2.358 2.126.584.195 9.668-3.99 20.188-9.3 15.999-8.076 19.376-9.447 20.653-8.387.839.696 1.3 1.855 1.024 2.574-1.315 3.428 1.393 1.501 5.911-4.205 6.554-8.278 6.694-8.305 14.683-2.797 8.237 5.679 8.82 5.348 5.441-3.093-3.789-9.463-3.656-9.95 3.626-13.344 3.438-1.602 7.102-3.211 8.143-3.575 1.041-.363 1.591-.964 1.221-1.333-.726-.726-1.513-.881-9.114-1.795-9.123-1.096-8.696-.558-8.379-10.545.154-4.88.02-9.133-.298-9.452-.319-.318-2.923 2.366-5.787 5.966m-178.558 18.672c-2.463 2.27-4.478 4.954-4.478 5.963 0 5.393 13.182 33.91 15.675 33.91 1.902 0 9.284-6.135 9.307-7.736.01-.679-1.602-4.279-3.583-8-3.691-6.934-9.399-22.939-9.399-26.354 0-3.033-2.686-2.241-7.522 2.217m96.394 43.537c-1.244 1.508-1.162 1.552.878.465 2.327-1.24 2.9-2.129 1.372-2.129-.482 0-1.495.749-2.25 1.664" fill-rule="evenodd"/><path fill="#9c9b9b" stroke="#9c9b9b" d="M207.5 140.059c-9.216 1.911-17.729 4.616-25.239 8.02-2.332 1.056-4.477 1.921-4.767 1.921-2.951 0-25.164 15.758-32.798 23.267-25.021 24.611-37.06 54.26-36.977 91.061.045 20.3.349 20.869 7.225 13.56l5.068-5.388-.606-5.77c-.935-8.885 1.817-27.439 5.817-39.23 20.954-61.759 88.262-93.818 147.662-70.333 7.152 2.828 15.275 6.95 17.889 9.08 2.815 2.293 2.111-.432-2.166-8.383-4.995-9.289-5.778-10.006-14.21-13.018-19.703-7.037-46.724-8.971-66.898-4.787m130.538 77.85c-.829 2.001-.894 3.491-.209 4.771 6.676 12.474 8.939 47.57 4.244 65.82-9.835 38.233-35.824 67.195-72.073 80.316-5.152 1.864-7.15 2.398-19.193 5.122-5.958 1.348-28.584 1.379-36.373.049-24.143-4.12-44.223-14.67-62.221-32.688C146.556 335.634 141.67 331 141.357 331c-1.311 0-8.357 6.272-8.357 7.439 0 2.764 27.621 28.561 30.581 28.561.307 0 2.44 1.268 4.739 2.817 14.378 9.688 44.349 18.245 63.68 18.181 10.589-.035 29.868-3.47 41.283-7.356 33.707-11.476 62.706-39.223 75.396-72.142 2.892-7.501 3.633-9.904 6.167-20 4.595-18.308 3.466-41.663-3.02-62.5-1.846-5.927-2.411-6.698-6.414-8.75-5.595-2.868-5.926-2.838-7.374.659m-222.307 71.854c-2.052 2.102-3.731 4.788-3.731 5.97 0 5.088 12.021 32.17 14.623 32.943.482.143 2.78-1.413 5.106-3.458l4.228-3.718-4.264-8.5c-3.922-7.82-8.248-19.677-8.933-24.489-.465-3.267-3.068-2.804-7.029 1.252" fill-rule="evenodd"/><path fill="#4e4e4e" stroke="#4e4e4e" d="M210.5 140.248c-27.079 5.267-57.39 22.074-71 39.369a271.41 271.41 0 0 1-5.592 6.847c-6.183 7.239-15.666 24.805-18.915 35.036-.699 2.2-1.624 4.9-2.056 6-.82 2.086-1.269 4.033-3.227 14-1.281 6.521-1.656 35.914-.494 38.743.604 1.471 1.425.987 5.25-3.103l4.534-4.847v-10.897c.001-46.062 29.245-87.887 74-105.832 10.656-4.273 19.274-5.802 35.5-6.299 23.727-.727 33.701 1.457 55.694 12.197l6.693 3.269-3.879-7.714c-4.23-8.414-5.797-9.523-19.008-13.463-14.871-4.434-43.296-6.069-57.5-3.306m128.148 77.988c-.321 1.23.481 5.618 1.783 9.75 6.499 20.626 7.128 46.156 1.578 64.014a758.788 758.788 0 0 0-2.114 7c-10.568 35.566-46.347 66.865-85.895 75.14-8.338 1.745-36.625 1.738-43.5-.011-26.729-6.797-41.871-15.16-59.055-32.619l-10.054-10.215-3.876 3.253c-4.698 3.945-4.547 4.297 6.66 15.428 33.531 33.309 82.403 45.227 126.325 30.807 63.058-20.703 98.786-85.896 82.086-149.783-2.433-9.31-3.306-10.817-7.506-12.959-5.047-2.575-5.712-2.555-6.432.195m-223.047 72.66-3.805 3.897 2.196 6.353c2.456 7.111 11.967 26.875 12.903 26.816.333-.02 2.29-1.483 4.35-3.25l3.746-3.212-3.265-6.5c-4.821-9.597-7.392-16.15-8.794-22.415-1.484-6.628-2.32-6.821-7.331-1.689" fill-rule="evenodd"/></svg>